<svg id="Capa_1" data-name="Capa 1" xmlns="http://www.w3.org/2000/svg" viewBox="0 0 35 35"><defs><style>.cls-1{fill:#fff;}.cls-2{fill:none;stroke:#fff;stroke-miterlimit:10;}</style></defs><title>Mesa de trabajo 1</title><path class="cls-1" d="M8.72,8c.87.29,1.46-.51,1.52-1.29,0-.06,0-.13,0-.19s0-.13,0-.2v0a.89.89,0,0,0-.3-.63.75.75,0,0,0-.3-.14,1,1,0,0,0-.82.1c-.44.27-.67,1-.17,1.37s1.16-.25.84-.7a.33.33,0,0,0-.51,0l0,0H9a.21.21,0,0,0,0,.15v0a.3.3,0,0,0,.14.2.2.2,0,0,1-.25,0,.35.35,0,0,1-.11-.26.62.62,0,0,1,.23-.46.69.69,0,0,1,.91,0,.59.59,0,0,1,.12.2l0,0v0a1.48,1.48,0,0,1,0,.2c0,.54-.16,1.21-.77,1.32A1.14,1.14,0,0,1,8,6.77v0A3.1,3.1,0,0,1,8.11,5.6,4.9,4.9,0,0,1,9.23,3.5c.1-.11-.06-.28-.17-.17A5.11,5.11,0,0,0,7.83,5.78C7.67,6.6,7.81,7.68,8.72,8Z"/><path class="cls-1" d="M8.2,26.21c.29-.87-.51-1.46-1.29-1.52H6.49a.89.89,0,0,0-.63.3.75.75,0,0,0-.14.3,1,1,0,0,0,.1.82c.27.44,1,.67,1.37.17s-.25-1.16-.7-.84a.33.33,0,0,0,0,.51l0,0h0a.21.21,0,0,0,.15,0h0a.3.3,0,0,0,.2-.14.2.2,0,0,1,0,.25.35.35,0,0,1-.26.11A.62.62,0,0,1,6.1,26a.69.69,0,0,1,0-.91A.59.59,0,0,1,6.3,25l0,0h0l.2,0c.54,0,1.21.16,1.32.77A1.14,1.14,0,0,1,7,26.9H7a3.1,3.1,0,0,1-1.14-.07,4.9,4.9,0,0,1-2.1-1.12c-.11-.1-.28.06-.17.17A5.11,5.11,0,0,0,6,27.11C6.8,27.27,7.89,27.13,8.2,26.21Z"/><path class="cls-1" d="M26.42,26.74c-.87-.29-1.46.51-1.52,1.29,0,.06,0,.13,0,.19s0,.13,0,.2v0a.89.89,0,0,0,.3.63.75.75,0,0,0,.3.14,1,1,0,0,0,.82-.1c.44-.27.67-1,.17-1.37s-1.16.25-.84.7a.33.33,0,0,0,.51,0l0,0h0a.21.21,0,0,0,0-.15v0a.3.3,0,0,0-.14-.2.2.2,0,0,1,.25,0,.35.35,0,0,1,.11.26.62.62,0,0,1-.23.46.69.69,0,0,1-.91,0,.59.59,0,0,1-.12-.2l0,0v0a1.48,1.48,0,0,1,0-.2c0-.54.16-1.21.77-1.32A1.14,1.14,0,0,1,27.1,28v0A3.1,3.1,0,0,1,27,29.13a4.9,4.9,0,0,1-1.12,2.1c-.1.11.06.28.17.17A5.11,5.11,0,0,0,27.32,29C27.47,28.14,27.34,27.05,26.42,26.74Z"/><path class="cls-1" d="M26.95,8.52c-.29.87.51,1.46,1.29,1.52h.42a.89.89,0,0,0,.63-.3.75.75,0,0,0,.14-.3,1,1,0,0,0-.1-.82c-.27-.44-1-.67-1.37-.17s.25,1.16.7.84a.33.33,0,0,0,0-.51l0,0h0a.21.21,0,0,0-.15,0h0a.3.3,0,0,0-.2.14.2.2,0,0,1,0-.25.35.35,0,0,1,.26-.11.62.62,0,0,1,.46.23.69.69,0,0,1,0,.91.59.59,0,0,1-.2.12l0,0h0l-.2,0c-.54,0-1.21-.16-1.32-.77a1.14,1.14,0,0,1,.91-1.21h0a3.1,3.1,0,0,1,1.14.07A4.9,4.9,0,0,1,31.44,9c.11.1.28-.06.17-.17a5.12,5.12,0,0,0-2.44-1.24C28.34,7.47,27.26,7.6,26.95,8.52Z"/><path class="cls-1" d="M27,5.6a3.1,3.1,0,0,1,.07,1.14v0a1.14,1.14,0,0,1-1.21.91c-.61-.1-.79-.78-.77-1.32a1.48,1.48,0,0,1,0-.2v0l0,0a.59.59,0,0,1,.12-.2.69.69,0,0,1,.91,0,.62.62,0,0,1,.23.46.35.35,0,0,1-.11.26.2.2,0,0,1-.25,0,.3.3,0,0,0,.14-.2v0a.21.21,0,0,0,0-.15h0l0,0a.33.33,0,0,0-.51,0c-.33.46.44,1,.84.7s.27-1.1-.17-1.37a1,1,0,0,0-.82-.1.75.75,0,0,0-.3.14.89.89,0,0,0-.3.63v0c0,.07,0,.13,0,.2s0,.13,0,.19c.06.78.66,1.58,1.52,1.29s1.05-1.39.89-2.21a5.11,5.11,0,0,0-1.24-2.44c-.1-.11-.27.05-.17.17A4.9,4.9,0,0,1,27,5.6Z"/><path class="cls-1" d="M3.71,9A4.9,4.9,0,0,1,5.81,7.9,3.1,3.1,0,0,1,7,7.83H7A1.14,1.14,0,0,1,7.89,9c-.1.61-.78.79-1.32.77l-.2,0h0l0,0a.59.59,0,0,1-.2-.12.69.69,0,0,1,0-.91.62.62,0,0,1,.46-.23.35.35,0,0,1,.26.11.2.2,0,0,1,0,.25.3.3,0,0,0-.2-.14h0a.21.21,0,0,0-.15,0h0l0,0a.33.33,0,0,0,0,.51c.46.33,1-.44.7-.84s-1.1-.27-1.37.17a1,1,0,0,0-.1.82.75.75,0,0,0,.14.3.89.89,0,0,0,.63.3h.42C7.69,10,8.49,9.39,8.2,8.52S6.8,7.47,6,7.62A5.11,5.11,0,0,0,3.54,8.86C3.43,9,3.59,9.13,3.71,9Z"/><path class="cls-1" d="M8.11,29.13A3.1,3.1,0,0,1,8,28v0a1.14,1.14,0,0,1,1.21-.91c.61.1.79.78.77,1.32a1.48,1.48,0,0,1,0,.2v0l0,0a.59.59,0,0,1-.12.2.69.69,0,0,1-.91,0,.62.62,0,0,1-.23-.46.35.35,0,0,1,.11-.26.2.2,0,0,1,.25,0,.3.3,0,0,0-.14.2v0a.21.21,0,0,0,0,.15H9l0,0a.33.33,0,0,0,.51,0c.33-.46-.44-1-.84-.7s-.27,1.1.17,1.37a1,1,0,0,0,.82.1.75.75,0,0,0,.3-.14.89.89,0,0,0,.3-.63v0c0-.07,0-.13,0-.2s0-.13,0-.19c-.06-.78-.66-1.58-1.52-1.29S7.67,28.14,7.83,29A5.11,5.11,0,0,0,9.07,31.4c.1.11.27-.05.17-.17A4.9,4.9,0,0,1,8.11,29.13Z"/><path class="cls-1" d="M31.44,25.71a4.9,4.9,0,0,1-2.1,1.12,3.1,3.1,0,0,1-1.14.07h0a1.14,1.14,0,0,1-.91-1.21c.1-.61.78-.79,1.32-.77l.2,0h0l0,0a.59.59,0,0,1,.2.12A.69.69,0,0,1,29,26a.62.62,0,0,1-.46.23.35.35,0,0,1-.26-.11.2.2,0,0,1,0-.25.3.3,0,0,0,.2.14h0a.21.21,0,0,0,.15,0h0l0,0a.33.33,0,0,0,0-.51c-.46-.33-1,.44-.7.84s1.1.27,1.37-.17a1,1,0,0,0,.1-.82.75.75,0,0,0-.14-.3.89.89,0,0,0-.63-.3h-.42c-.78.06-1.58.66-1.29,1.52s1.39,1.05,2.21.89a5.12,5.12,0,0,0,2.44-1.24C31.72,25.77,31.55,25.6,31.44,25.71Z"/><path class="cls-1" d="M8.75,4.92A.33.33,0,0,0,9,5.25h.13a.33.33,0,0,0,.26-.32.32.32,0,1,0-.65,0Z"/><path class="cls-1" d="M5.46,25.8a.33.33,0,0,0-.32-.26.32.32,0,1,0,0,.65.33.33,0,0,0,.34-.26.1.1,0,0,0,0-.06A.1.1,0,0,0,5.46,25.8Z"/><path class="cls-1" d="M26.4,29.82a.33.33,0,0,0-.26-.34H26a.33.33,0,0,0-.26.32.32.32,0,1,0,.65,0Z"/><path class="cls-1" d="M29.69,8.93a.33.33,0,0,0,.32.26.32.32,0,1,0,0-.65.33.33,0,0,0-.34.26.1.1,0,0,0,0,.06A.1.1,0,0,0,29.69,8.93Z"/><path class="cls-1" d="M26,5.25h.13a.33.33,0,0,0,.26-.34.32.32,0,1,0-.65,0A.33.33,0,0,0,26,5.25Z"/><path class="cls-1" d="M5.46,8.8a.33.33,0,0,0-.34-.26.32.32,0,1,0,0,.65.33.33,0,0,0,.32-.26.1.1,0,0,0,0-.06A.1.1,0,0,0,5.46,8.8Z"/><path class="cls-1" d="M9.14,29.48H9a.33.33,0,0,0-.26.34.32.32,0,1,0,.65,0A.33.33,0,0,0,9.14,29.48Z"/><path class="cls-1" d="M29.69,25.93a.33.33,0,0,0,.34.26.32.32,0,1,0,0-.65.33.33,0,0,0-.32.26.1.1,0,0,0,0,.06A.1.1,0,0,0,29.69,25.93Z"/><path class="cls-1" d="M9.93,4.49a3.26,3.26,0,0,0,.75-.32l.06,0a.1.1,0,0,0,0-.14.11.11,0,0,0-.1-.06,3.11,3.11,0,0,0-.85,0c-.15,0-.37.19-.33.37S9.78,4.52,9.93,4.49Z"/><path class="cls-1" d="M4.49,25.46c.19,0,.23-.3.21-.46a3.26,3.26,0,0,0-.32-.75.09.09,0,0,0,0-.06.1.1,0,0,0-.14,0,.11.11,0,0,0-.06.1,3.11,3.11,0,0,0,0,.85C4.15,25.29,4.3,25.51,4.49,25.46Z"/><path class="cls-1" d="M25.21,30.24a3.26,3.26,0,0,0-.75.32l-.06,0a.1.1,0,0,0,0,.14.11.11,0,0,0,.1.06,3.11,3.11,0,0,0,.85,0c.15,0,.37-.19.33-.37S25.37,30.22,25.21,30.24Z"/><path class="cls-1" d="M30.66,9.27c-.19,0-.23.3-.21.46a3.26,3.26,0,0,0,.32.75.09.09,0,0,0,0,.06.1.1,0,0,0,.14,0,.11.11,0,0,0,.06-.1,3.11,3.11,0,0,0,0-.85C31,9.45,30.84,9.22,30.66,9.27Z"/><path class="cls-1" d="M24.49,3.93a.11.11,0,0,0-.1.06.1.1,0,0,0,0,.14l.06,0a3.26,3.26,0,0,0,.75.32c.16,0,.41,0,.46-.21s-.18-.34-.33-.37A3.11,3.11,0,0,0,24.49,3.93Z"/><path class="cls-1" d="M4.49,9.27c-.19,0-.34.18-.37.33a3.11,3.11,0,0,0,0,.85.11.11,0,0,0,.06.1.1.1,0,0,0,.14,0,.09.09,0,0,0,0-.06,3.26,3.26,0,0,0,.32-.75C4.72,9.57,4.68,9.31,4.49,9.27Z"/><path class="cls-1" d="M10.65,30.8a.11.11,0,0,0,.1-.06.1.1,0,0,0,0-.14l-.06,0a3.26,3.26,0,0,0-.75-.32c-.16,0-.41,0-.46.21s.18.34.33.37A3.11,3.11,0,0,0,10.65,30.8Z"/><path class="cls-1" d="M30.66,25.46c.19,0,.34-.18.37-.33a3.11,3.11,0,0,0,0-.85.11.11,0,0,0-.06-.1.1.1,0,0,0-.14,0,.09.09,0,0,0,0,.06,3.26,3.26,0,0,0-.32.75C30.42,25.16,30.47,25.42,30.66,25.46Z"/><path class="cls-1" d="M10.73,4.29a3.43,3.43,0,0,0-.62.51c-.1.13-.18.39,0,.51s.39,0,.49-.15a3.47,3.47,0,0,0,.35-.73.1.1,0,0,0,0-.15A.1.1,0,0,0,10.73,4.29Z"/><path class="cls-1" d="M5.52,24.86c.12-.16,0-.39-.15-.49A3.47,3.47,0,0,0,4.64,24a.1.1,0,0,0-.15,0,.1.1,0,0,0,0,.16,3.43,3.43,0,0,0,.51.62C5.14,24.94,5.4,25,5.52,24.86Z"/><path class="cls-1" d="M24.42,30.44a3.43,3.43,0,0,0,.62-.51c.1-.13.18-.39,0-.51s-.39,0-.49.15a3.47,3.47,0,0,0-.35.73.1.1,0,0,0,0,.15A.1.1,0,0,0,24.42,30.44Z"/><path class="cls-1" d="M29.63,9.88c-.12.16,0,.39.15.49a3.47,3.47,0,0,0,.73.35.1.1,0,0,0,.15,0,.1.1,0,0,0,0-.16,3.43,3.43,0,0,0-.51-.62C30,9.8,29.75,9.72,29.63,9.88Z"/><path class="cls-1" d="M24.57,5.17c.1.13.33.27.49.15s.08-.38,0-.51a3.43,3.43,0,0,0-.62-.51.1.1,0,0,0-.16,0,.1.1,0,0,0,0,.15A3.47,3.47,0,0,0,24.57,5.17Z"/><path class="cls-1" d="M4.49,10.68a.1.1,0,0,0,.15,0,3.47,3.47,0,0,0,.73-.35c.13-.1.27-.33.15-.49S5.14,9.8,5,9.9a3.43,3.43,0,0,0-.51.62A.1.1,0,0,0,4.49,10.68Z"/><path class="cls-1" d="M10.57,29.57c-.1-.13-.33-.27-.49-.15s-.08.38,0,.51a3.43,3.43,0,0,0,.62.51.1.1,0,0,0,.16,0,.1.1,0,0,0,0-.15A3.47,3.47,0,0,0,10.57,29.57Z"/><path class="cls-1" d="M30.66,24a.1.1,0,0,0-.15,0,3.47,3.47,0,0,0-.73.35c-.13.1-.27.33-.15.49s.38.08.51,0a3.43,3.43,0,0,0,.51-.62A.1.1,0,0,0,30.66,24Z"/><path class="cls-1" d="M10.35,2.66a.21.21,0,0,0,.28.08.21.21,0,1,0-.3-.11Z"/><path class="cls-1" d="M2.68,24.21a.21.21,0,0,0,.16.39h0a.21.21,0,0,0,.08-.28A.21.21,0,0,0,2.68,24.21Z"/><path class="cls-1" d="M24.79,32.07a.21.21,0,0,0-.28-.08.21.21,0,1,0,.3.11Z"/><path class="cls-1" d="M32.47,10.52a.21.21,0,0,0-.16-.39h0a.21.21,0,0,0-.08.28A.21.21,0,0,0,32.47,10.52Z"/><path class="cls-1" d="M24.51,2.74a.21.21,0,0,0,.28-.08v0a.21.21,0,1,0-.3.11Z"/><path class="cls-1" d="M2.68,10.52a.21.21,0,0,0,.27-.09.21.21,0,0,0-.08-.28h0a.21.21,0,0,0-.16.39Z"/><path class="cls-1" d="M10.64,32a.21.21,0,0,0-.28.08v0a.21.21,0,1,0,.3-.11Z"/><path class="cls-1" d="M32.47,24.21a.21.21,0,0,0-.27.09.21.21,0,0,0,.08.28h0a.21.21,0,0,0,.16-.39Z"/><path class="cls-1" d="M9.9,3.55a3.31,3.31,0,0,0,.8.26h0a.12.12,0,0,0,.11-.19h0A3.32,3.32,0,0,0,10.2,3c-.14-.08-.41-.11-.5.07S9.77,3.47,9.9,3.55Z"/><path class="cls-1" d="M3.76,25a3.31,3.31,0,0,0,.26-.8H4v0a.12.12,0,0,0-.19-.11h0a3.32,3.32,0,0,0-.58.62c-.08.14-.11.41.07.5S3.68,25.17,3.76,25Z"/><path class="cls-1" d="M25.25,31.18a3.31,3.31,0,0,0-.8-.26h0a.12.12,0,0,0-.11.19h0a3.32,3.32,0,0,0,.62.58c.14.08.41.11.5-.07S25.38,31.26,25.25,31.18Z"/><path class="cls-1" d="M31.39,9.69a3.31,3.31,0,0,0-.26.8h0v0a.12.12,0,0,0,.19.11h0A3.32,3.32,0,0,0,31.9,10c.08-.14.11-.41-.07-.5S31.47,9.56,31.39,9.69Z"/><path class="cls-1" d="M24.42,3.82h0a3.31,3.31,0,0,0,.8-.26c.13-.08.29-.28.2-.45S25.09,3,24.95,3a3.32,3.32,0,0,0-.62.58h0a.12.12,0,0,0,.11.19Z"/><path class="cls-1" d="M3.82,10.61h0A.12.12,0,0,0,4,10.51v0H4a3.31,3.31,0,0,0-.26-.8c-.08-.13-.28-.29-.45-.2s-.15.36-.07.5A3.32,3.32,0,0,0,3.82,10.61Z"/><path class="cls-1" d="M10.72,30.92h0a3.31,3.31,0,0,0-.8.26c-.13.08-.29.28-.2.45s.36.15.5.07a3.32,3.32,0,0,0,.62-.58h0a.12.12,0,0,0-.11-.19Z"/><path class="cls-1" d="M31.32,24.12h0a.12.12,0,0,0-.19.11v0h0a3.31,3.31,0,0,0,.26.8c.08.13.28.29.45.2s.15-.36.07-.5A3.32,3.32,0,0,0,31.32,24.12Z"/><path class="cls-1" d="M11,4.09a.21.21,0,0,0,.28.08.21.21,0,1,0-.3-.11Z"/><path class="cls-1" d="M4.26,24h0a.21.21,0,0,0,.08-.28.21.21,0,1,0-.11.3Z"/><path class="cls-1" d="M24.17,30.65a.21.21,0,0,0-.28-.08.21.21,0,1,0,.3.11Z"/><path class="cls-1" d="M30.88,10.75h0a.21.21,0,0,0-.08.28.21.21,0,1,0,.11-.3Z"/><path class="cls-1" d="M24.08,3.8a.21.21,0,0,0-.19.36.21.21,0,0,0,.28-.08v0A.21.21,0,0,0,24.08,3.8Z"/><path class="cls-1" d="M4,10.86a.21.21,0,0,0,.36.19.21.21,0,0,0-.08-.28h0A.21.21,0,0,0,4,10.86Z"/><path class="cls-1" d="M11.07,30.93a.21.21,0,0,0,.19-.36.21.21,0,0,0-.28.08v0A.21.21,0,0,0,11.07,30.93Z"/><path class="cls-1" d="M31.14,23.87a.21.21,0,0,0-.36-.19.21.21,0,0,0,.08.28h0A.21.21,0,0,0,31.14,23.87Z"/><path class="cls-1" d="M13.36,3a3.37,3.37,0,0,0-.2,1.84,1.46,1.46,0,0,1-.32,1A.66.66,0,0,1,12,6a1.14,1.14,0,0,1-.45-.87.6.6,0,0,1,.2-.48.45.45,0,0,1,.23-.1.36.36,0,0,0,.51.51.46.46,0,0,0,.08-.57A.72.72,0,0,0,12,4.2c-.55-.06-.81.43-.8.9a2.13,2.13,0,0,0,.57,1.76,4.07,4.07,0,0,0,1.78.51,1.46,1.46,0,0,1,1,.49.66.66,0,0,1,0,.89,1.14,1.14,0,0,1-.93.3.6.6,0,0,1-.44-.28A.45.45,0,0,1,13,8.52a.36.36,0,0,0,.59-.42.46.46,0,0,0-.54-.17.72.72,0,0,0-.43.51c-.16.56.33.91.83,1a1.34,1.34,0,0,0,1.28-.62.12.12,0,0,0,0-.06.82.82,0,0,0,.09-.59A1.25,1.25,0,0,0,14,7.26c-.58-.21-1.22-.15-1.8-.37A1.31,1.31,0,0,1,11.47,6a1.45,1.45,0,0,0,.52.38h.07a.82.82,0,0,0,.59,0,1.25,1.25,0,0,0,.71-1c.11-.61-.09-1.23.06-1.84a1.35,1.35,0,0,1,1.22-1c.15,0,.15-.24,0-.23A1.6,1.6,0,0,0,13.36,3Z"/><path class="cls-1" d="M21.79,31.7a3.37,3.37,0,0,0,.2-1.84,1.46,1.46,0,0,1,.32-1,.66.66,0,0,1,.88-.12,1.14,1.14,0,0,1,.45.87.6.6,0,0,1-.2.48.45.45,0,0,1-.23.1.36.36,0,0,0-.51-.51.46.46,0,0,0-.08.57.72.72,0,0,0,.57.33c.55.06.81-.43.8-.9a2.13,2.13,0,0,0-.57-1.76,4.07,4.07,0,0,0-1.78-.51,1.46,1.46,0,0,1-1-.49.66.66,0,0,1,0-.89,1.14,1.14,0,0,1,.93-.3.6.6,0,0,1,.44.28.45.45,0,0,1,.06.24.36.36,0,0,0-.59.42.46.46,0,0,0,.54.17.72.72,0,0,0,.43-.51c.16-.56-.33-.91-.83-1a1.34,1.34,0,0,0-1.28.62.12.12,0,0,0,0,.06.82.82,0,0,0-.09.59,1.25,1.25,0,0,0,.84.86c.58.21,1.22.15,1.8.37a1.31,1.31,0,0,1,.76.94,1.45,1.45,0,0,0-.52-.38h-.07a.82.82,0,0,0-.59,0,1.25,1.25,0,0,0-.71,1c-.11.61.09,1.23-.06,1.84a1.35,1.35,0,0,1-1.22,1c-.15,0-.15.24,0,.23A1.6,1.6,0,0,0,21.79,31.7Z"/><path class="cls-1" d="M32.66,14.42a1.6,1.6,0,0,0-.76-1.27,3.37,3.37,0,0,0-1.84-.2,1.46,1.46,0,0,1-1-.32.66.66,0,0,1-.12-.88,1.14,1.14,0,0,1,.87-.45.6.6,0,0,1,.48.2.45.45,0,0,1,.1.23.36.36,0,0,0-.51.51.46.46,0,0,0,.57.08.72.72,0,0,0,.33-.57c.06-.55-.43-.81-.9-.8a2.13,2.13,0,0,0-1.76.57,4.07,4.07,0,0,0-.51,1.78,1.46,1.46,0,0,1-.49,1,.66.66,0,0,1-.89,0,1.14,1.14,0,0,1-.3-.93.6.6,0,0,1,.28-.44.45.45,0,0,1,.24-.06.36.36,0,0,0,.42.59.46.46,0,0,0,.17-.54.72.72,0,0,0-.51-.43c-.56-.16-.91.33-1,.83a1.34,1.34,0,0,0,.62,1.28l.06,0a.82.82,0,0,0,.59.09,1.25,1.25,0,0,0,.86-.84c.21-.58.15-1.22.37-1.8a1.31,1.31,0,0,1,.94-.76,1.45,1.45,0,0,0-.38.52.12.12,0,0,0,0,.07.82.82,0,0,0,0,.59,1.25,1.25,0,0,0,1,.71c.61.11,1.23-.09,1.84.06a1.35,1.35,0,0,1,1,1.22C32.44,14.57,32.67,14.57,32.66,14.42Z"/><path class="cls-1" d="M20.52,2.51a1.35,1.35,0,0,1,1.22,1c.14.6-.05,1.23.06,1.84a1.25,1.25,0,0,0,.71,1,.82.82,0,0,0,.59,0h.07A1.45,1.45,0,0,0,23.68,6a1.31,1.31,0,0,1-.76.94c-.58.22-1.22.16-1.8.37a1.25,1.25,0,0,0-.84.86.82.82,0,0,0,.09.59.12.12,0,0,0,0,.06,1.34,1.34,0,0,0,1.28.62c.5,0,1-.39.83-1a.72.72,0,0,0-.43-.51.46.46,0,0,0-.54.17.36.36,0,0,0,.59.42.45.45,0,0,1-.06.24.6.6,0,0,1-.44.28,1.14,1.14,0,0,1-.93-.3.66.66,0,0,1,0-.89,1.46,1.46,0,0,1,1-.49,4.07,4.07,0,0,0,1.78-.51A2.13,2.13,0,0,0,24,5.11c0-.48-.25-1-.8-.9a.72.72,0,0,0-.57.33.46.46,0,0,0,.08.57.36.36,0,0,0,.51-.51.45.45,0,0,1,.23.1.6.6,0,0,1,.2.48,1.14,1.14,0,0,1-.45.87.66.66,0,0,1-.88-.12,1.46,1.46,0,0,1-.32-1A3.37,3.37,0,0,0,21.79,3a1.6,1.6,0,0,0-1.27-.76C20.37,2.27,20.37,2.5,20.52,2.51Z"/><path class="cls-1" d="M2.48,14.42c0,.15.22.15.23,0a1.35,1.35,0,0,1,1-1.22c.6-.14,1.23.05,1.84-.06a1.25,1.25,0,0,0,1-.71.82.82,0,0,0,0-.59.12.12,0,0,0,0-.07,1.45,1.45,0,0,0-.38-.52A1.31,1.31,0,0,1,7.1,12c.22.58.16,1.22.37,1.8a1.25,1.25,0,0,0,.86.84.82.82,0,0,0,.59-.09l.06,0a1.34,1.34,0,0,0,.62-1.28c0-.5-.39-1-1-.83a.72.72,0,0,0-.51.43.46.46,0,0,0,.17.54.36.36,0,0,0,.42-.59.45.45,0,0,1,.24.06.6.6,0,0,1,.28.44,1.14,1.14,0,0,1-.3.93.66.66,0,0,1-.89,0,1.46,1.46,0,0,1-.49-1,4.07,4.07,0,0,0-.51-1.78A2.13,2.13,0,0,0,5.31,11c-.48,0-1,.25-.9.8a.72.72,0,0,0,.33.57.46.46,0,0,0,.57-.08.36.36,0,0,0-.51-.51.45.45,0,0,1,.1-.23.6.6,0,0,1,.48-.2,1.14,1.14,0,0,1,.87.45.66.66,0,0,1-.12.88,1.46,1.46,0,0,1-1,.32,3.37,3.37,0,0,0-1.84.2A1.6,1.6,0,0,0,2.48,14.42Z"/><path class="cls-1" d="M14.63,32.22a1.35,1.35,0,0,1-1.22-1c-.14-.6.05-1.23-.06-1.84a1.25,1.25,0,0,0-.71-1,.82.82,0,0,0-.59,0H12a1.45,1.45,0,0,0-.52.38,1.31,1.31,0,0,1,.76-.94c.58-.22,1.22-.16,1.8-.37a1.25,1.25,0,0,0,.84-.86.82.82,0,0,0-.09-.59.12.12,0,0,0,0-.06,1.34,1.34,0,0,0-1.28-.62c-.5,0-1,.39-.83,1a.72.72,0,0,0,.43.51.46.46,0,0,0,.54-.17.36.36,0,0,0-.59-.42.45.45,0,0,1,.06-.24.6.6,0,0,1,.44-.28,1.14,1.14,0,0,1,.93.3.66.66,0,0,1,0,.89,1.46,1.46,0,0,1-1,.49,4.07,4.07,0,0,0-1.78.51,2.13,2.13,0,0,0-.57,1.76c0,.48.25,1,.8.9a.72.72,0,0,0,.57-.33.46.46,0,0,0-.08-.57.36.36,0,0,0-.51.51.45.45,0,0,1-.23-.1.6.6,0,0,1-.2-.48A1.14,1.14,0,0,1,12,28.7a.66.66,0,0,1,.88.12,1.46,1.46,0,0,1,.32,1,3.37,3.37,0,0,0,.2,1.84,1.6,1.6,0,0,0,1.27.76C14.78,32.47,14.78,32.23,14.63,32.22Z"/><path class="cls-1" d="M32.66,20.31c0-.15-.22-.15-.23,0a1.35,1.35,0,0,1-1,1.22c-.6.14-1.23-.05-1.84.06a1.25,1.25,0,0,0-1,.71.82.82,0,0,0,0,.59.12.12,0,0,0,0,.07,1.45,1.45,0,0,0,.38.52,1.31,1.31,0,0,1-.94-.76c-.22-.58-.16-1.22-.37-1.8a1.25,1.25,0,0,0-.86-.84.82.82,0,0,0-.59.09l-.06,0a1.34,1.34,0,0,0-.62,1.28c0,.5.39,1,1,.83a.72.72,0,0,0,.51-.43.46.46,0,0,0-.17-.54.36.36,0,0,0-.42.59.45.45,0,0,1-.24-.06.6.6,0,0,1-.28-.44,1.14,1.14,0,0,1,.3-.93.66.66,0,0,1,.89,0,1.46,1.46,0,0,1,.49,1,4.07,4.07,0,0,0,.51,1.78,2.13,2.13,0,0,0,1.76.57c.48,0,1-.25.9-.8a.72.72,0,0,0-.33-.57.46.46,0,0,0-.57.08.36.36,0,0,0,.51.51.45.45,0,0,1-.1.23.6.6,0,0,1-.48.2A1.14,1.14,0,0,1,28.9,23,.66.66,0,0,1,29,22.1a1.46,1.46,0,0,1,1-.32,3.37,3.37,0,0,0,1.84-.2A1.6,1.6,0,0,0,32.66,20.31Z"/><path class="cls-1" d="M12.52,3.68a.92.92,0,0,0,.24-1.28.56.56,0,0,0-.62-.19.43.43,0,0,0-.28.47.3.3,0,0,0,.48.2.25.25,0,0,0,0-.4.34.34,0,0,1,.14,0,.38.38,0,0,1,.17.35.66.66,0,0,1-.4.58.72.72,0,0,1-.87-.88c.13-.51.64-.6,1.1-.59a5.76,5.76,0,0,1,1.44.23A.12.12,0,0,0,13.94,2a6.08,6.08,0,0,0-1.37-.23A1.6,1.6,0,0,0,11.45,2a1,1,0,0,0-.15.15h0a1,1,0,0,0-.1,1.32A1,1,0,0,0,12.52,3.68Z"/><path class="cls-1" d="M3.89,22.42a.92.92,0,0,0-1.28-.24.56.56,0,0,0-.19.62.43.43,0,0,0,.47.28.3.3,0,0,0,.2-.48.25.25,0,0,0-.4,0,.34.34,0,0,1,0-.14.38.38,0,0,1,.35-.17.66.66,0,0,1,.58.4.72.72,0,0,1-.88.87c-.51-.13-.6-.64-.59-1.1a5.76,5.76,0,0,1,.23-1.44A.12.12,0,0,0,2.2,21,6.09,6.09,0,0,0,2,22.37a1.6,1.6,0,0,0,.23,1.12,1,1,0,0,0,.15.15h0a1,1,0,0,0,1.32.1A1,1,0,0,0,3.89,22.42Z"/><path class="cls-1" d="M22.63,31.05a.92.92,0,0,0-.24,1.28.56.56,0,0,0,.62.19.43.43,0,0,0,.28-.47.3.3,0,0,0-.48-.2.25.25,0,0,0,0,.4.34.34,0,0,1-.14,0,.38.38,0,0,1-.17-.35.66.66,0,0,1,.4-.58.72.72,0,0,1,.87.88c-.13.51-.64.6-1.1.59a5.76,5.76,0,0,1-1.44-.23.12.12,0,0,0-.06.23,6.08,6.08,0,0,0,1.37.23,1.6,1.6,0,0,0,1.12-.23,1,1,0,0,0,.15-.15h0a1,1,0,0,0,.1-1.32A1,1,0,0,0,22.63,31.05Z"/><path class="cls-1" d="M31.26,12.31a.92.92,0,0,0,1.28.24.56.56,0,0,0,.19-.62.43.43,0,0,0-.47-.28.3.3,0,0,0-.2.48.25.25,0,0,0,.4,0,.34.34,0,0,1,0,.14.38.38,0,0,1-.35.17.66.66,0,0,1-.58-.4.72.72,0,0,1,.88-.87c.51.13.6.64.59,1.1a5.76,5.76,0,0,1-.23,1.44.12.12,0,0,0,.23.06,6.08,6.08,0,0,0,.23-1.37,1.6,1.6,0,0,0-.23-1.12,1,1,0,0,0-.15-.15h0a1,1,0,0,0-1.32-.1A1,1,0,0,0,31.26,12.31Z"/><path class="cls-1" d="M21.26,2.22A5.76,5.76,0,0,1,22.7,2c.46,0,1,.08,1.1.59a.72.72,0,0,1-.87.88.66.66,0,0,1-.4-.58.38.38,0,0,1,.17-.35.34.34,0,0,1,.14,0,.25.25,0,0,0,0,.4.3.3,0,0,0,.48-.2A.43.43,0,0,0,23,2.22a.56.56,0,0,0-.62.19.92.92,0,0,0,.24,1.28,1,1,0,0,0,1.32-.22,1,1,0,0,0-.1-1.32h0A1,1,0,0,0,23.69,2a1.6,1.6,0,0,0-1.12-.23A6.08,6.08,0,0,0,21.2,2,.12.12,0,0,0,21.26,2.22Z"/><path class="cls-1" d="M2.2,13.74a.12.12,0,0,0,.23-.06,5.76,5.76,0,0,1-.23-1.44c0-.46.08-1,.59-1.1a.72.72,0,0,1,.88.87.66.66,0,0,1-.58.4.38.38,0,0,1-.35-.17.34.34,0,0,1,0-.14.25.25,0,0,0,.4,0,.3.3,0,0,0-.2-.48.43.43,0,0,0-.47.28.56.56,0,0,0,.19.62.92.92,0,0,0,1.28-.24A1,1,0,0,0,3.67,11a1,1,0,0,0-1.32.1h0a1,1,0,0,0-.15.15A1.6,1.6,0,0,0,2,12.36,6.09,6.09,0,0,0,2.2,13.74Z"/><path class="cls-1" d="M13.88,32.52a5.76,5.76,0,0,1-1.44.23c-.46,0-1-.08-1.1-.59a.72.72,0,0,1,.87-.88.66.66,0,0,1,.4.58.38.38,0,0,1-.17.35.34.34,0,0,1-.14,0,.25.25,0,0,0,0-.4.3.3,0,0,0-.48.2.43.43,0,0,0,.28.47.56.56,0,0,0,.62-.19.92.92,0,0,0-.24-1.28,1,1,0,0,0-1.32.22,1,1,0,0,0,.1,1.32h0a1,1,0,0,0,.15.15,1.6,1.6,0,0,0,1.12.23,6.08,6.08,0,0,0,1.37-.23A.12.12,0,0,0,13.88,32.52Z"/><path class="cls-1" d="M32.95,21a.12.12,0,0,0-.23.06A5.76,5.76,0,0,1,33,22.5c0,.46-.08,1-.59,1.1a.72.72,0,0,1-.88-.87.66.66,0,0,1,.58-.4.38.38,0,0,1,.35.17.34.34,0,0,1,0,.14.25.25,0,0,0-.4,0,.3.3,0,0,0,.2.48.43.43,0,0,0,.47-.28.56.56,0,0,0-.19-.62.92.92,0,0,0-1.28.24,1,1,0,0,0,.22,1.32,1,1,0,0,0,1.32-.1h0a1,1,0,0,0,.15-.15,1.6,1.6,0,0,0,.23-1.12A6.08,6.08,0,0,0,32.95,21Z"/><path class="cls-1" d="M13.72,3.49a.75.75,0,0,0-.11.27.13.13,0,0,0,0,0,1.49,1.49,0,0,0,0,.61.12.12,0,0,0,0,0,1.22,1.22,0,0,0,1,1.07,1,1,0,0,0,1.13-.77A.93.93,0,0,0,15,3.62c-.46-.08-1,.42-.64.86a.4.4,0,0,0,.62.06.31.31,0,0,0,0-.44l0,0,0,0,.1,0a.47.47,0,0,1,.23.23.62.62,0,0,1-.79.85,1.1,1.1,0,0,1-.59-1.42,1.06,1.06,0,0,1,1.09-.55A2.27,2.27,0,0,1,16,3.9l0,0a6.94,6.94,0,0,1,1,1.41c.07.13.28,0,.2-.12a7.33,7.33,0,0,0-.94-1.35,3.66,3.66,0,0,0-1.21-1A1.06,1.06,0,0,0,13.72,3.49Z"/><path class="cls-1" d="M3.69,21.22a.75.75,0,0,0,.27.11H4a1.49,1.49,0,0,0,.61,0h0a1.22,1.22,0,0,0,1.07-1A1,1,0,0,0,5,19.25a.93.93,0,0,0-1.15.66c-.08.46.42,1,.86.64a.4.4,0,0,0,.06-.62.31.31,0,0,0-.44,0l0,0,0,0a.24.24,0,0,1,0-.1.47.47,0,0,1,.23-.23.62.62,0,0,1,.85.79,1.1,1.1,0,0,1-1.42.59A1.06,1.06,0,0,1,3.39,20a2.27,2.27,0,0,1,.72-1.11l0,0a6.94,6.94,0,0,1,1.41-1c.13-.07,0-.28-.12-.2a7.33,7.33,0,0,0-1.35.94,3.66,3.66,0,0,0-1,1.21A1.06,1.06,0,0,0,3.69,21.22Z"/><path class="cls-1" d="M21.43,31.25a.75.75,0,0,0,.11-.27.13.13,0,0,0,0,0,1.49,1.49,0,0,0,0-.61.12.12,0,0,0,0,0,1.22,1.22,0,0,0-1-1.07,1,1,0,0,0-1.13.77.93.93,0,0,0,.66,1.15c.46.08,1-.42.64-.86a.4.4,0,0,0-.62-.06.31.31,0,0,0,0,.44l0,0,0,0-.1,0a.47.47,0,0,1-.23-.23.62.62,0,0,1,.79-.85A1.1,1.1,0,0,1,21.29,31a1.06,1.06,0,0,1-1.09.55,2.27,2.27,0,0,1-1.11-.72l0,0a6.94,6.94,0,0,1-1-1.41c-.07-.13-.28,0-.2.12a7.33,7.33,0,0,0,.94,1.35,3.66,3.66,0,0,0,1.21,1A1.06,1.06,0,0,0,21.43,31.25Z"/><path class="cls-1" d="M31.45,13.51a.75.75,0,0,0-.27-.11h0a1.49,1.49,0,0,0-.61,0h0a1.22,1.22,0,0,0-1.07,1,1,1,0,0,0,.77,1.13.93.93,0,0,0,1.15-.66c.08-.46-.42-1-.86-.64a.4.4,0,0,0-.06.62.31.31,0,0,0,.44,0l0,0,0,0a.24.24,0,0,1,0,.1.47.47,0,0,1-.23.23.62.62,0,0,1-.85-.79,1.1,1.1,0,0,1,1.42-.59,1.06,1.06,0,0,1,.55,1.09A2.27,2.27,0,0,1,31,15.84l0,0a6.94,6.94,0,0,1-1.41,1c-.13.07,0,.28.12.2a7.33,7.33,0,0,0,1.35-.94,3.66,3.66,0,0,0,1-1.21A1.06,1.06,0,0,0,31.45,13.51Z"/><path class="cls-1" d="M18.8,3.86a7.33,7.33,0,0,0-.94,1.35c-.07.13.13.25.2.12a6.94,6.94,0,0,1,1-1.41l0,0a2.27,2.27,0,0,1,1.11-.72,1.06,1.06,0,0,1,1.09.55,1.1,1.1,0,0,1-.59,1.42.62.62,0,0,1-.79-.85.47.47,0,0,1,.23-.23l.1,0,0,0,0,0a.31.31,0,0,0,0,.44.4.4,0,0,0,.62-.06c.33-.44-.18-.95-.64-.86a.93.93,0,0,0-.66,1.15,1,1,0,0,0,1.13.77,1.22,1.22,0,0,0,1-1.07.12.12,0,0,0,0,0,1.49,1.49,0,0,0,0-.61.13.13,0,0,0,0,0,.75.75,0,0,0-.11-.27A1.06,1.06,0,0,0,20,2.9,3.66,3.66,0,0,0,18.8,3.86Z"/><path class="cls-1" d="M4.07,16.14a7.33,7.33,0,0,0,1.35.94c.13.07.25-.13.12-.2a6.94,6.94,0,0,1-1.41-1l0,0a2.27,2.27,0,0,1-.72-1.11,1.06,1.06,0,0,1,.55-1.09,1.1,1.1,0,0,1,1.42.59.62.62,0,0,1-.85.79.47.47,0,0,1-.23-.23.24.24,0,0,1,0-.1l0,0,0,0a.31.31,0,0,0,.44,0,.4.4,0,0,0-.06-.62c-.44-.33-.95.18-.86.64A.93.93,0,0,0,5,15.49a1,1,0,0,0,.77-1.13,1.22,1.22,0,0,0-1.07-1h0a1.49,1.49,0,0,0-.61,0H4a.75.75,0,0,0-.27.11,1.06,1.06,0,0,0-.59,1.41A3.66,3.66,0,0,0,4.07,16.14Z"/><path class="cls-1" d="M16.34,30.87a7.33,7.33,0,0,0,.94-1.35c.07-.13-.13-.25-.2-.12a6.94,6.94,0,0,1-1,1.41l0,0a2.27,2.27,0,0,1-1.11.72A1.06,1.06,0,0,1,13.86,31a1.1,1.1,0,0,1,.59-1.42.62.62,0,0,1,.79.85.47.47,0,0,1-.23.23l-.1,0,0,0,0,0a.31.31,0,0,0,0-.44.4.4,0,0,0-.62.06c-.33.44.18.95.64.86A.93.93,0,0,0,15.69,30a1,1,0,0,0-1.13-.77,1.22,1.22,0,0,0-1,1.07.12.12,0,0,0,0,0,1.49,1.49,0,0,0,0,.61.13.13,0,0,0,0,0,.75.75,0,0,0,.11.27,1.06,1.06,0,0,0,1.41.59A3.66,3.66,0,0,0,16.34,30.87Z"/><path class="cls-1" d="M31.08,18.6a7.33,7.33,0,0,0-1.35-.94c-.13-.07-.25.13-.12.2a6.94,6.94,0,0,1,1.41,1l0,0A2.27,2.27,0,0,1,31.76,20a1.06,1.06,0,0,1-.55,1.09,1.1,1.1,0,0,1-1.42-.59.62.62,0,0,1,.85-.79.47.47,0,0,1,.23.23.24.24,0,0,1,0,.1l0,0,0,0a.31.31,0,0,0-.44,0,.4.4,0,0,0,.06.62c.44.33.95-.18.86-.64a.93.93,0,0,0-1.15-.66,1,1,0,0,0-.77,1.13,1.22,1.22,0,0,0,1.07,1h0a1.49,1.49,0,0,0,.61,0h0a.75.75,0,0,0,.27-.11A1.06,1.06,0,0,0,32,19.81,3.66,3.66,0,0,0,31.08,18.6Z"/><path class="cls-1" d="M14.88,7.08v0a.21.21,0,0,0,.28.08.21.21,0,1,0-.3-.11Z"/><path class="cls-1" d="M7.29,20.06h0a.21.21,0,0,0,.08-.28.21.21,0,1,0-.11.3Z"/><path class="cls-1" d="M20.27,27.65v0a.21.21,0,0,0-.28-.08.21.21,0,1,0,.3.11Z"/><path class="cls-1" d="M27.86,14.67h0a.21.21,0,0,0-.08.28.21.21,0,1,0,.11-.3Z"/><path class="cls-1" d="M20.16,6.83a.21.21,0,0,0-.19.36.21.21,0,0,0,.28-.08v0A.21.21,0,0,0,20.16,6.83Z"/><path class="cls-1" d="M7.32,14.69h0a.21.21,0,1,0,.11.3A.21.21,0,0,0,7.32,14.69Z"/><path class="cls-1" d="M15,27.91a.21.21,0,0,0,.19-.36.21.21,0,0,0-.28.08v0A.21.21,0,0,0,15,27.91Z"/><path class="cls-1" d="M27.83,20h0a.21.21,0,1,0-.11-.3A.21.21,0,0,0,27.83,20Z"/><path class="cls-1" d="M15,6.24c-.05.25.27.43.47.47a4.52,4.52,0,0,0,1.24-.11.1.1,0,0,0,.12-.11.1.1,0,0,0-.09-.13l-.64-.25a1.92,1.92,0,0,0-.53-.16C15.42,5.93,15.09,6,15,6.24Z"/><path class="cls-1" d="M6.91,19.42a4.52,4.52,0,0,0-.11-1.24.1.1,0,0,0-.11-.12.1.1,0,0,0-.13.09l-.25.64a1.92,1.92,0,0,0-.16.53c0,.2.06.52.3.57S6.88,19.63,6.91,19.42Z"/><path class="cls-1" d="M20.1,28.49c.05-.25-.27-.43-.47-.47a4.52,4.52,0,0,0-1.24.11.1.1,0,0,0-.12.11.1.1,0,0,0,.09.13l.64.25a1.92,1.92,0,0,0,.53.16C19.73,28.81,20.05,28.73,20.1,28.49Z"/><path class="cls-1" d="M28.23,15.31a4.52,4.52,0,0,0,.11,1.24.1.1,0,0,0,.11.12.1.1,0,0,0,.13-.09l.25-.64a1.92,1.92,0,0,0,.16-.53c0-.2-.06-.52-.3-.57S28.27,15.11,28.23,15.31Z"/><path class="cls-1" d="M19.53,5.94a1.92,1.92,0,0,0-.53.16l-.64.25a.1.1,0,0,0-.09.13.1.1,0,0,0,.12.11,4.52,4.52,0,0,0,1.24.11c.2,0,.52-.21.47-.47S19.73,5.93,19.53,5.94Z"/><path class="cls-1" d="M6.91,15.31c0-.2-.21-.52-.47-.47s-.32.37-.3.57a1.92,1.92,0,0,0,.16.53l.25.64a.1.1,0,0,0,.13.09.1.1,0,0,0,.11-.12A4.52,4.52,0,0,0,6.91,15.31Z"/><path class="cls-1" d="M15.62,28.79a1.92,1.92,0,0,0,.53-.16l.64-.25a.1.1,0,0,0,.09-.13.1.1,0,0,0-.12-.11A4.52,4.52,0,0,0,15.52,28c-.2,0-.52.21-.47.47S15.42,28.81,15.62,28.79Z"/><path class="cls-1" d="M28.23,19.42c0,.2.21.52.47.47s.32-.37.3-.57a1.92,1.92,0,0,0-.16-.53l-.25-.64a.1.1,0,0,0-.13-.09.1.1,0,0,0-.11.12A4.52,4.52,0,0,0,28.23,19.42Z"/><path class="cls-1" d="M16,7.77A5.51,5.51,0,0,0,16.89,7a.09.09,0,0,0,.05,0,.1.1,0,0,0,0-.13.12.12,0,0,0-.11,0,6.24,6.24,0,0,0-1.15.25c-.2.08-.51.34-.39.6S15.78,7.87,16,7.77Z"/><path class="cls-1" d="M7.88,19.67c.26-.12.2-.51.1-.7A5.51,5.51,0,0,0,7.25,18a.09.09,0,0,0,0-.05.1.1,0,0,0-.13,0,.12.12,0,0,0,0,.11,6.24,6.24,0,0,0,.25,1.15C7.36,19.49,7.62,19.79,7.88,19.67Z"/><path class="cls-1" d="M19.18,27a5.51,5.51,0,0,0-.92.73.09.09,0,0,0-.05,0,.1.1,0,0,0,0,.13.12.12,0,0,0,.11,0,6.24,6.24,0,0,0,1.15-.25c.2-.08.51-.34.39-.6S19.37,26.86,19.18,27Z"/><path class="cls-1" d="M27.27,15.06c-.26.12-.2.51-.1.7a5.51,5.51,0,0,0,.73.92.09.09,0,0,0,0,.05.1.1,0,0,0,.13,0,.12.12,0,0,0,0-.11,6.24,6.24,0,0,0-.25-1.15C27.78,15.25,27.52,14.94,27.27,15.06Z"/><path class="cls-1" d="M19.88,7.67c.12-.26-.19-.52-.39-.6a6.24,6.24,0,0,0-1.15-.25.12.12,0,0,0-.11,0,.1.1,0,0,0,0,.13.09.09,0,0,0,.05,0,5.51,5.51,0,0,0,.92.73C19.37,7.87,19.76,7.93,19.88,7.67Z"/><path class="cls-1" d="M7.88,15.06c-.26-.12-.52.19-.6.39A6.24,6.24,0,0,0,7,16.6a.12.12,0,0,0,0,.11.1.1,0,0,0,.13,0,.09.09,0,0,0,0-.05A5.51,5.51,0,0,0,8,15.76C8.08,15.57,8.14,15.18,7.88,15.06Z"/><path class="cls-1" d="M15.27,27.06c-.12.26.19.52.39.6a6.24,6.24,0,0,0,1.15.25.12.12,0,0,0,.11,0,.1.1,0,0,0,0-.13.09.09,0,0,0-.05,0A5.51,5.51,0,0,0,16,27C15.78,26.86,15.38,26.8,15.27,27.06Z"/><path class="cls-1" d="M27.27,19.67c.26.12.52-.19.6-.39a6.24,6.24,0,0,0,.25-1.15.12.12,0,0,0,0-.11.1.1,0,0,0-.13,0,.09.09,0,0,0,0,.05,5.51,5.51,0,0,0-.73.92C27.07,19.16,27,19.56,27.27,19.67Z"/><path class="cls-1" d="M15.53,8.41l0,0,0,0a.21.21,0,0,0,.24-.09.21.21,0,1,0-.35-.21.22.22,0,0,0,0,.15A.19.19,0,0,0,15.53,8.41Z"/><path class="cls-1" d="M8.58,19.08a.21.21,0,1,0-.21.35.22.22,0,0,0,.15,0,.19.19,0,0,0,.1-.06l0,0a.09.09,0,0,0,0,0A.21.21,0,0,0,8.58,19.08Z"/><path class="cls-1" d="M19.61,26.32l0,0,0,0a.21.21,0,0,0-.24.09.21.21,0,1,0,.35.21.22.22,0,0,0,0-.15A.19.19,0,0,0,19.61,26.32Z"/><path class="cls-1" d="M26.57,15.65a.21.21,0,1,0,.21-.35.22.22,0,0,0-.15,0,.19.19,0,0,0-.1.06l0,0a.09.09,0,0,0,0,0A.21.21,0,0,0,26.57,15.65Z"/><path class="cls-1" d="M19.61,8.41a.19.19,0,0,0,.06-.1.22.22,0,0,0,0-.15.21.21,0,1,0-.35.21.21.21,0,0,0,.24.09l0,0Z"/><path class="cls-1" d="M8.58,15.65a.21.21,0,0,0,.09-.24.09.09,0,0,0,0,0l0,0a.19.19,0,0,0-.1-.06.22.22,0,0,0-.15,0,.21.21,0,1,0,.21.35Z"/><path class="cls-1" d="M15.53,26.32a.19.19,0,0,0-.06.1.22.22,0,0,0,0,.15.21.21,0,1,0,.35-.21.21.21,0,0,0-.24-.09l0,0Z"/><path class="cls-1" d="M26.57,19.08a.21.21,0,0,0-.09.24.09.09,0,0,0,0,0l0,0a.19.19,0,0,0,.1.06.22.22,0,0,0,.15,0,.21.21,0,1,0-.21-.35Z"/><path class="cls-1" d="M17,6a4.15,4.15,0,0,0-.45-.61c-.12-.12-.39-.24-.54-.08s0,.42.14.52a4,4,0,0,0,.71.36.12.12,0,0,0,.12,0A.1.1,0,0,0,17.07,6,.09.09,0,0,0,17,6Z"/><path class="cls-1" d="M5.48,18.89c.16.15.42,0,.52-.14A4,4,0,0,0,6.36,18a.12.12,0,0,0,0-.12.1.1,0,0,0-.12-.06.09.09,0,0,0-.06,0,4.15,4.15,0,0,0-.61.45C5.44,18.48,5.32,18.75,5.48,18.89Z"/><path class="cls-1" d="M18.11,28.77a4.15,4.15,0,0,0,.45.61c.12.12.39.24.54.08s0-.42-.14-.52a4,4,0,0,0-.71-.36.12.12,0,0,0-.12,0,.1.1,0,0,0-.06.12A.09.09,0,0,0,18.11,28.77Z"/><path class="cls-1" d="M29.67,15.84c-.16-.15-.42,0-.52.14a4,4,0,0,0-.36.71.12.12,0,0,0,0,.12.1.1,0,0,0,.12.06.09.09,0,0,0,.06,0,4.15,4.15,0,0,0,.61-.45C29.71,16.25,29.83,16,29.67,15.84Z"/><path class="cls-1" d="M18.56,5.35a4.15,4.15,0,0,0-.45.61.09.09,0,0,0,0,.06.1.1,0,0,0,.06.12.12.12,0,0,0,.12,0A4,4,0,0,0,19,5.79c.13-.1.29-.36.14-.52S18.69,5.23,18.56,5.35Z"/><path class="cls-1" d="M5.48,15.84c-.16.15,0,.41.08.54a4.15,4.15,0,0,0,.61.45.09.09,0,0,0,.06,0,.1.1,0,0,0,.12-.06.12.12,0,0,0,0-.12A4,4,0,0,0,6,16C5.89,15.85,5.63,15.69,5.48,15.84Z"/><path class="cls-1" d="M16.58,29.38a4.15,4.15,0,0,0,.45-.61.09.09,0,0,0,0-.06.1.1,0,0,0-.06-.12.12.12,0,0,0-.12,0,4,4,0,0,0-.71.36c-.13.1-.29.36-.14.52S16.46,29.5,16.58,29.38Z"/><path class="cls-1" d="M29.67,18.89c.16-.15,0-.41-.08-.54A4.15,4.15,0,0,0,29,17.9a.09.09,0,0,0-.06,0,.1.1,0,0,0-.12.06.12.12,0,0,0,0,.12,4,4,0,0,0,.36.71C29.25,18.89,29.51,19,29.67,18.89Z"/><path class="cls-1" d="M17.18,7.17a.11.11,0,0,0-.13,0,6.41,6.41,0,0,0-.84.82c-.13.18-.25.6,0,.73s.51-.11.62-.3a5.52,5.52,0,0,0,.4-1.13.09.09,0,0,0,0,0A.1.1,0,0,0,17.18,7.17Z"/><path class="cls-1" d="M9,18.71c.12-.24-.11-.51-.3-.62a5.52,5.52,0,0,0-1.13-.4h0a.1.1,0,0,0-.11.07.11.11,0,0,0,0,.13,6.4,6.4,0,0,0,.82.84C8.4,18.85,8.82,19,9,18.71Z"/><path class="cls-1" d="M18,27.56a.11.11,0,0,0,.13,0,6.41,6.41,0,0,0,.84-.82c.13-.18.25-.6,0-.73s-.51.11-.62.3a5.51,5.51,0,0,0-.4,1.13.09.09,0,0,0,0,0A.1.1,0,0,0,18,27.56Z"/><path class="cls-1" d="M26.19,16c-.12.24.11.51.3.62a5.52,5.52,0,0,0,1.13.4h0a.1.1,0,0,0,.11-.07.11.11,0,0,0,0-.13,6.41,6.41,0,0,0-.82-.84C26.75,15.88,26.33,15.75,26.19,16Z"/><path class="cls-1" d="M18,7.17a.1.1,0,0,0-.07.11.09.09,0,0,0,0,0,5.51,5.51,0,0,0,.4,1.13c.11.18.38.42.62.3s.14-.55,0-.73a6.41,6.41,0,0,0-.84-.82A.11.11,0,0,0,18,7.17Z"/><path class="cls-1" d="M7.4,16.85a.11.11,0,0,0,0,.13.1.1,0,0,0,.11.07h0a5.52,5.52,0,0,0,1.13-.4c.18-.11.42-.38.3-.62s-.55-.14-.73,0A6.4,6.4,0,0,0,7.4,16.85Z"/><path class="cls-1" d="M17.18,27.56a.1.1,0,0,0,.07-.11.09.09,0,0,0,0,0,5.52,5.52,0,0,0-.4-1.13c-.11-.18-.38-.42-.62-.3s-.14.55,0,.73a6.41,6.41,0,0,0,.84.82A.11.11,0,0,0,17.18,27.56Z"/><path class="cls-1" d="M27.75,17.89a.11.11,0,0,0,0-.13.1.1,0,0,0-.11-.07h0a5.52,5.52,0,0,0-1.13.4c-.18.11-.42.38-.3.62s.55.14.73,0A6.41,6.41,0,0,0,27.75,17.89Z"/><path class="cls-1" d="M16.85,8.8a.21.21,0,0,0-.21.21.21.21,0,0,0,.15.2h.11a.21.21,0,0,0,.15-.2A.21.21,0,0,0,16.85,8.8Z"/><path class="cls-1" d="M9.21,18.29a.21.21,0,0,0,.2-.15.09.09,0,0,0,0-.05.09.09,0,0,0,0-.05.21.21,0,0,0-.2-.15.21.21,0,1,0,0,.41Z"/><path class="cls-1" d="M18.29,25.93a.21.21,0,0,0,.21-.21.21.21,0,0,0-.15-.2h-.11a.21.21,0,0,0-.15.2A.21.21,0,0,0,18.29,25.93Z"/><path class="cls-1" d="M25.93,16.44a.21.21,0,0,0-.2.15.09.09,0,0,0,0,.05.09.09,0,0,0,0,.05.21.21,0,0,0,.2.15.21.21,0,1,0,0-.41Z"/><path class="cls-1" d="M18.29,8.8a.21.21,0,0,0-.21.21.21.21,0,0,0,.15.2h.11A.21.21,0,0,0,18.5,9,.21.21,0,0,0,18.29,8.8Z"/><path class="cls-1" d="M9.41,16.59a.21.21,0,0,0-.2-.15.21.21,0,1,0,0,.41.21.21,0,0,0,.2-.15.09.09,0,0,0,0-.05A.09.09,0,0,0,9.41,16.59Z"/><path class="cls-1" d="M16.85,25.93a.21.21,0,0,0,.21-.21.21.21,0,0,0-.15-.2H16.8a.21.21,0,0,0-.15.2A.21.21,0,0,0,16.85,25.93Z"/><path class="cls-1" d="M25.73,18.14a.21.21,0,0,0,.2.15.21.21,0,1,0,0-.41.21.21,0,0,0-.2.15.09.09,0,0,0,0,.05A.09.09,0,0,0,25.73,18.14Z"/><path class="cls-1" d="M18,8.59a2.07,2.07,0,0,0-.1-.54l-.17-.68a.1.1,0,0,0-.11-.08h0a.1.1,0,0,0-.11.08L17.28,8a2.07,2.07,0,0,0-.1.54c0,.2.13.54.39.54h0C17.83,9.13,18,8.79,18,8.59Z"/><path class="cls-1" d="M25.81,17.36h0c0,.26.34.38.54.39a2.07,2.07,0,0,0,.54-.1l.68-.17a.1.1,0,0,0,.08-.11h0a.1.1,0,0,0-.08-.11l-.68-.17a2.07,2.07,0,0,0-.54-.1C26.15,17,25.81,17.11,25.81,17.36Z"/><path class="cls-1" d="M17.18,26.14a2.07,2.07,0,0,0,.1.54l.17.68a.1.1,0,0,0,.11.08h0a.1.1,0,0,0,.11-.08l.17-.68a2.07,2.07,0,0,0,.1-.54c0-.2-.13-.54-.39-.54h0C17.31,25.6,17.19,25.94,17.18,26.14Z"/><path class="cls-1" d="M9.34,17.37h0c0-.26-.34-.38-.54-.39a2.07,2.07,0,0,0-.54.1l-.68.17a.1.1,0,0,0-.08.11h0a.1.1,0,0,0,.08.11l.68.17a2.07,2.07,0,0,0,.54.1C9,17.75,9.34,17.63,9.34,17.37Z"/><path class="cls-1" d="M17.51,6.91h.14a.33.33,0,0,0,.26-.34.34.34,0,0,0-.32-.32h0a.34.34,0,0,0-.32.32A.33.33,0,0,0,17.51,6.91Z"/><path class="cls-1" d="M28,17.3a.1.1,0,0,0,0,.06h0a.1.1,0,0,0,0,.06.33.33,0,0,0,.34.26.34.34,0,0,0,.32-.32h0a.34.34,0,0,0-.32-.32A.33.33,0,0,0,28,17.3Z"/><path class="cls-1" d="M17.64,27.82h-.14a.33.33,0,0,0-.26.34.34.34,0,0,0,.32.32h0a.34.34,0,0,0,.32-.32A.33.33,0,0,0,17.64,27.82Z"/><path class="cls-1" d="M7.12,17.43a.1.1,0,0,0,0-.06h0a.1.1,0,0,0,0-.06A.33.33,0,0,0,6.78,17a.34.34,0,0,0-.32.32h0a.34.34,0,0,0,.32.32A.33.33,0,0,0,7.12,17.43Z"/><path class="cls-1" d="M17.57,5.55h0a.2.2,0,0,0,0,.4h.07a.2.2,0,0,0,0-.4Z"/><path class="cls-1" d="M29.19,17.17a.21.21,0,0,0-.21.16h0a.2.2,0,0,0,.4,0h0A.21.21,0,0,0,29.19,17.17Z"/><path class="cls-1" d="M17.57,29.18h0a.2.2,0,0,0,0-.4h-.07a.2.2,0,0,0,0,.4Z"/><path class="cls-1" d="M6,17.56a.21.21,0,0,0,.21-.16h0a.2.2,0,0,0-.4,0h0A.21.21,0,0,0,6,17.56Z"/><path class="cls-1" d="M12.8,11.73a.33.33,0,0,0,.37-.2.1.1,0,0,0,0-.06.1.1,0,0,0,0-.06.33.33,0,0,0-.28-.31.32.32,0,1,0-.12.64Z"/><path class="cls-1" d="M11.93,22.14a.33.33,0,0,0-.2-.37l-.06,0h-.06a.33.33,0,0,0-.31.28.32.32,0,1,0,.64.12Z"/><path class="cls-1" d="M22.34,23a.33.33,0,0,0-.37.2.1.1,0,0,0,0,.06.1.1,0,0,0,0,.06.33.33,0,0,0,.28.31.32.32,0,1,0,.12-.64Z"/><path class="cls-1" d="M23.21,12.6a.33.33,0,0,0,.2.37l.06,0h.06a.33.33,0,0,0,.31-.28.32.32,0,1,0-.64-.12Z"/><path class="cls-1" d="M22.22,11.09a.33.33,0,0,0-.28.31.1.1,0,0,0,0,.06.1.1,0,0,0,0,.06.33.33,0,0,0,.37.2.32.32,0,1,0-.12-.64Z"/><path class="cls-1" d="M11.61,13h.06l.06,0a.33.33,0,0,0,.2-.37.32.32,0,1,0-.64.12A.33.33,0,0,0,11.61,13Z"/><path class="cls-1" d="M12.92,23.64a.33.33,0,0,0,.28-.31.1.1,0,0,0,0-.06.1.1,0,0,0,0-.06.33.33,0,0,0-.37-.2.32.32,0,1,0,.12.64Z"/><path class="cls-1" d="M23.54,21.74h-.06l-.06,0a.33.33,0,0,0-.2.37.32.32,0,1,0,.64-.12A.33.33,0,0,0,23.54,21.74Z"/><path class="cls-1" d="M12.37,9.63a.1.1,0,0,0-.13,0,.11.11,0,0,0-.08.09,3.11,3.11,0,0,0-.17.83c0,.16.12.4.31.39s.28-.26.28-.42a3.26,3.26,0,0,0-.19-.79A.09.09,0,0,0,12.37,9.63Z"/><path class="cls-1" d="M10.69,22.36a3.26,3.26,0,0,0-.79.19l-.06,0a.1.1,0,0,0,0,.13.11.11,0,0,0,.09.08,3.11,3.11,0,0,0,.83.17c.16,0,.4-.12.39-.31S10.85,22.35,10.69,22.36Z"/><path class="cls-1" d="M22.78,25.1a.1.1,0,0,0,.13,0A.11.11,0,0,0,23,25a3.11,3.11,0,0,0,.17-.83c0-.16-.12-.4-.31-.39s-.28.26-.28.42a3.26,3.26,0,0,0,.19.79A.09.09,0,0,0,22.78,25.1Z"/><path class="cls-1" d="M24.45,12.38a3.26,3.26,0,0,0,.79-.19l.06,0a.1.1,0,0,0,0-.13.11.11,0,0,0-.09-.08,3.11,3.11,0,0,0-.83-.17c-.16,0-.4.12-.39.31S24.29,12.38,24.45,12.38Z"/><path class="cls-1" d="M22.84,10.9c.19,0,.3-.23.31-.39A3.11,3.11,0,0,0,23,9.68a.11.11,0,0,0-.08-.09.1.1,0,0,0-.13,0,.09.09,0,0,0,0,.06,3.26,3.26,0,0,0-.19.79C22.56,10.64,22.65,10.89,22.84,10.9Z"/><path class="cls-1" d="M9.89,12A.11.11,0,0,0,9.8,12a.1.1,0,0,0,0,.13l.06,0a3.26,3.26,0,0,0,.79.19c.16,0,.4-.09.42-.28s-.23-.3-.39-.31A3.11,3.11,0,0,0,9.89,12Z"/><path class="cls-1" d="M12.3,23.83c-.19,0-.3.23-.31.39a3.11,3.11,0,0,0,.17.83.11.11,0,0,0,.08.09.1.1,0,0,0,.13,0,.09.09,0,0,0,0-.06,3.26,3.26,0,0,0,.19-.79C12.59,24.09,12.5,23.84,12.3,23.83Z"/><path class="cls-1" d="M25.25,22.78a.11.11,0,0,0,.09-.08.1.1,0,0,0,0-.13l-.06,0a3.26,3.26,0,0,0-.79-.19c-.16,0-.4.09-.42.28s.23.3.39.31A3.11,3.11,0,0,0,25.25,22.78Z"/><path class="cls-1" d="M12.7,9.51a.1.1,0,0,0-.16,0,.1.1,0,0,0,0,.16,3.43,3.43,0,0,0,.4.7c.11.12.35.24.5.11s0-.39-.06-.51A3.47,3.47,0,0,0,12.7,9.51Z"/><path class="cls-1" d="M10.18,21.58a3.47,3.47,0,0,0-.46.66.1.1,0,0,0,0,.16.1.1,0,0,0,.16,0,3.43,3.43,0,0,0,.7-.4c.12-.11.24-.35.11-.5S10.3,21.47,10.18,21.58Z"/><path class="cls-1" d="M22.45,25.23a.1.1,0,0,0,.16,0,.1.1,0,0,0,0-.16,3.43,3.43,0,0,0-.4-.7c-.11-.12-.35-.24-.5-.11s0,.39.06.51A3.47,3.47,0,0,0,22.45,25.23Z"/><path class="cls-1" d="M25.43,12.34a.1.1,0,0,0-.16,0,3.43,3.43,0,0,0-.7.4c-.12.11-.24.35-.11.5s.39,0,.51-.06a3.47,3.47,0,0,0,.46-.66A.1.1,0,0,0,25.43,12.34Z"/><path class="cls-1" d="M22.6,9.51a.1.1,0,0,0-.16,0,3.47,3.47,0,0,0-.66.46c-.11.12-.21.37-.06.51s.39,0,.5-.11a3.43,3.43,0,0,0,.4-.7A.1.1,0,0,0,22.6,9.51Z"/><path class="cls-1" d="M9.72,12.34a.1.1,0,0,0,0,.16,3.47,3.47,0,0,0,.46.66c.12.11.37.21.51.06s0-.39-.11-.5a3.43,3.43,0,0,0-.7-.4A.1.1,0,0,0,9.72,12.34Z"/><path class="cls-1" d="M12.54,25.22a.1.1,0,0,0,.16,0,3.47,3.47,0,0,0,.66-.46c.11-.12.21-.37.06-.51s-.39,0-.5.11a3.43,3.43,0,0,0-.4.7A.1.1,0,0,0,12.54,25.22Z"/><path class="cls-1" d="M25.43,22.4a.1.1,0,0,0,0-.16,3.47,3.47,0,0,0-.46-.66c-.12-.11-.37-.21-.51-.06s0,.39.11.5a3.43,3.43,0,0,0,.7.4A.1.1,0,0,0,25.43,22.4Z"/><path class="cls-1" d="M11,9.5a.21.21,0,1,0-.16.27h0A.21.21,0,0,0,11,9.5Z"/><path class="cls-1" d="M9.83,24.35a.21.21,0,0,0,.15-.23v0A.21.21,0,0,0,9.7,24a.21.21,0,0,0,.12.39Z"/><path class="cls-1" d="M24.17,25.24a.21.21,0,1,0,.16-.27h0A.21.21,0,0,0,24.17,25.24Z"/><path class="cls-1" d="M25.32,10.38a.21.21,0,0,0-.15.23v0a.21.21,0,0,0,.27.13.21.21,0,0,0-.12-.39Z"/><path class="cls-1" d="M24.32,9.77a.21.21,0,1,0-.16-.27.21.21,0,0,0,.13.27Z"/><path class="cls-1" d="M9.83,10.38a.21.21,0,0,0-.12.39.21.21,0,0,0,.27-.13v0A.21.21,0,0,0,9.83,10.38Z"/><path class="cls-1" d="M10.82,25a.21.21,0,1,0,.16.27.21.21,0,0,0-.13-.27Z"/><path class="cls-1" d="M25.32,24.35a.21.21,0,0,0,.12-.39.21.21,0,0,0-.27.13v0A.21.21,0,0,0,25.32,24.35Z"/><path class="cls-1" d="M12,9.47a.11.11,0,0,0-.12,0h0a3.32,3.32,0,0,0-.67.51c-.1.13-.18.39,0,.51s.37,0,.47-.12A3.31,3.31,0,0,0,12,9.62h0v0A.11.11,0,0,0,12,9.47Z"/><path class="cls-1" d="M10.19,23.74c.13.1.39.18.51,0s0-.37-.12-.47a3.31,3.31,0,0,0-.74-.39h0a.12.12,0,0,0-.14.17h0A3.32,3.32,0,0,0,10.19,23.74Z"/><path class="cls-1" d="M23.14,25.26a.11.11,0,0,0,.12,0h0a3.32,3.32,0,0,0,.67-.51c.1-.13.18-.39,0-.51s-.37,0-.47.12a3.31,3.31,0,0,0-.39.74h0v0A.11.11,0,0,0,23.14,25.26Z"/><path class="cls-1" d="M25,11c-.13-.1-.39-.18-.51,0s0,.37.12.47a3.31,3.31,0,0,0,.74.39h0a.12.12,0,0,0,.14-.17h0A3.32,3.32,0,0,0,25,11Z"/><path class="cls-1" d="M24,10.49c.16-.12.08-.38,0-.51a3.32,3.32,0,0,0-.67-.51h0a.12.12,0,0,0-.17.14v0h0a3.31,3.31,0,0,0,.39.74C23.59,10.48,23.82,10.6,24,10.49Z"/><path class="cls-1" d="M9.68,11.67h0a.12.12,0,0,0,.14.17h0a3.31,3.31,0,0,0,.74-.39c.12-.1.24-.33.12-.47s-.38-.08-.51,0A3.32,3.32,0,0,0,9.68,11.67Z"/><path class="cls-1" d="M11.18,24.24c-.16.12-.08.38,0,.51a3.32,3.32,0,0,0,.67.51h0a.12.12,0,0,0,.17-.14v0h0a3.31,3.31,0,0,0-.39-.74C11.55,24.25,11.33,24.13,11.18,24.24Z"/><path class="cls-1" d="M25.47,23.07h0a.12.12,0,0,0-.14-.17h0a3.31,3.31,0,0,0-.74.39c-.12.1-.24.33-.12.47s.38.08.51,0A3.32,3.32,0,0,0,25.47,23.07Z"/><path class="cls-1" d="M12.24,9a.21.21,0,0,0,.09.41h0a.21.21,0,0,0,.13-.27A.21.21,0,0,0,12.24,9Z"/><path class="cls-1" d="M9.46,22.84a.21.21,0,0,0,.15-.24v0a.21.21,0,0,0-.27-.13.21.21,0,0,0,.12.39Z"/><path class="cls-1" d="M22.91,25.74a.21.21,0,0,0-.09-.41h0a.21.21,0,0,0-.13.27A.21.21,0,0,0,22.91,25.74Z"/><path class="cls-1" d="M25.69,11.89a.21.21,0,0,0-.15.24v0a.21.21,0,0,0,.27.13.21.21,0,0,0-.12-.39Z"/><path class="cls-1" d="M22.66,9.13a.21.21,0,0,0,.13.27h0a.21.21,0,1,0-.16-.27Z"/><path class="cls-1" d="M9.46,11.89a.21.21,0,0,0-.12.39.21.21,0,0,0,.27-.13v0A.21.21,0,0,0,9.46,11.89Z"/><path class="cls-1" d="M12.49,25.6a.21.21,0,0,0-.13-.27h0a.21.21,0,1,0,.16.27Z"/><path class="cls-1" d="M25.69,22.84a.21.21,0,0,0,.12-.39.21.21,0,0,0-.27.13v0A.21.21,0,0,0,25.69,22.84Z"/><path class="cls-1" d="M7.07,23.21a4.07,4.07,0,0,0,.51-1.78,1.46,1.46,0,0,1,.49-1,.66.66,0,0,1,.89,0,1.14,1.14,0,0,1,.3.93.6.6,0,0,1-.28.44.45.45,0,0,1-.24.06.36.36,0,0,0-.42-.59.46.46,0,0,0-.17.54.72.72,0,0,0,.51.43c.56.16.91-.33,1-.83A1.34,1.34,0,0,0,9,20.19l-.06,0a.82.82,0,0,0-.59-.09,1.25,1.25,0,0,0-.86.84c-.21.58-.15,1.22-.37,1.8a1.31,1.31,0,0,1-.94.76A1.45,1.45,0,0,0,6.54,23a.12.12,0,0,0,0-.07.82.82,0,0,0,0-.59,1.25,1.25,0,0,0-1-.71c-.61-.11-1.23.09-1.84-.06a1.35,1.35,0,0,1-1-1.22c0-.15-.24-.15-.23,0a1.6,1.6,0,0,0,.76,1.27,3.37,3.37,0,0,0,1.84.2,1.46,1.46,0,0,1,1,.32.66.66,0,0,1,.12.88,1.14,1.14,0,0,1-.87.45.6.6,0,0,1-.48-.2.45.45,0,0,1-.1-.23.36.36,0,0,0,.51-.51.46.46,0,0,0-.57-.08.72.72,0,0,0-.33.57c-.06.55.43.81.9.8A2.13,2.13,0,0,0,7.07,23.21Z"/><path class="cls-1" d="M11,6.21a.12.12,0,0,0-.21-.1,6.09,6.09,0,0,0-.46,1.31,1.6,1.6,0,0,0,0,1.14,1,1,0,0,0,.12.17h0a1,1,0,0,0,1.28.32,1,1,0,0,0,.44-1.26A.92.92,0,0,0,11,7.35a.56.56,0,0,0-.29.58.43.43,0,0,0,.42.36.3.3,0,0,0,.28-.44.25.25,0,0,0-.4,0,.34.34,0,0,1,.06-.13.38.38,0,0,1,.38-.1.66.66,0,0,1,.51.49.72.72,0,0,1-1,.71c-.49-.22-.49-.74-.4-1.19A5.76,5.76,0,0,1,11,6.21Z"/><path class="cls-1" d="M6.32,24.14a6.08,6.08,0,0,0,1.31.46,1.6,1.6,0,0,0,1.14,0l.17-.12h0a1,1,0,0,0,.32-1.28A1,1,0,0,0,8,22.71a.92.92,0,0,0-.46,1.22.56.56,0,0,0,.58.29.43.43,0,0,0,.36-.42.3.3,0,0,0-.44-.28.25.25,0,0,0,0,.4.34.34,0,0,1-.13-.06.38.38,0,0,1-.1-.38A.66.66,0,0,1,8.28,23,.72.72,0,0,1,9,24c-.22.49-.74.49-1.19.4a5.76,5.76,0,0,1-1.38-.47A.12.12,0,0,0,6.32,24.14Z"/><path class="cls-1" d="M24.13,28.52a.12.12,0,0,0,.21.1,6.08,6.08,0,0,0,.46-1.31,1.6,1.6,0,0,0,0-1.14,1,1,0,0,0-.12-.17h0a1,1,0,0,0-1.28-.32,1,1,0,0,0-.44,1.26.92.92,0,0,0,1.22.46.56.56,0,0,0,.29-.58.43.43,0,0,0-.42-.36.3.3,0,0,0-.28.44.25.25,0,0,0,.4,0,.34.34,0,0,1-.06.13.38.38,0,0,1-.38.1.66.66,0,0,1-.51-.49.72.72,0,0,1,1-.71c.49.22.49.74.4,1.19A5.76,5.76,0,0,1,24.13,28.52Z"/><path class="cls-1" d="M27.35,10.34a5.76,5.76,0,0,1,1.38.47.12.12,0,0,0,.1-.21,6.08,6.08,0,0,0-1.31-.46,1.6,1.6,0,0,0-1.14,0l-.17.12h0a1,1,0,0,0-.32,1.28,1,1,0,0,0,1.26.44.92.92,0,0,0,.46-1.22.56.56,0,0,0-.58-.29.43.43,0,0,0-.36.42.3.3,0,0,0,.44.28.25.25,0,0,0,0-.4.34.34,0,0,1,.13.06.38.38,0,0,1,.1.38.66.66,0,0,1-.49.51.72.72,0,0,1-.71-1C26.38,10.25,26.9,10.25,27.35,10.34Z"/><path class="cls-1" d="M23.74,7.84a.3.3,0,0,0,.28.44.43.43,0,0,0,.42-.36.56.56,0,0,0-.29-.58.92.92,0,0,0-1.22.46,1,1,0,0,0,.44,1.26,1,1,0,0,0,1.28-.32h0a1,1,0,0,0,.12-.17,1.6,1.6,0,0,0,0-1.14,6.08,6.08,0,0,0-.46-1.31.12.12,0,0,0-.21.1,5.76,5.76,0,0,1,.47,1.38c.09.45.09,1-.4,1.19a.72.72,0,0,1-1-.71.66.66,0,0,1,.51-.49.38.38,0,0,1,.38.1.34.34,0,0,1,.06.13A.25.25,0,0,0,23.74,7.84Z"/><path class="cls-1" d="M8.95,10.3h0l-.17-.12a1.6,1.6,0,0,0-1.14,0,6.08,6.08,0,0,0-1.31.46.12.12,0,0,0,.1.21,5.76,5.76,0,0,1,1.38-.47c.45-.09,1-.09,1.19.4a.72.72,0,0,1-.71,1,.66.66,0,0,1-.49-.51.38.38,0,0,1,.1-.38A.34.34,0,0,1,8,10.8a.25.25,0,0,0,0,.4.3.3,0,0,0,.44-.28.43.43,0,0,0-.36-.42.56.56,0,0,0-.58.29A.92.92,0,0,0,8,12a1,1,0,0,0,1.26-.44A1,1,0,0,0,8.95,10.3Z"/><path class="cls-1" d="M11.41,26.89a.3.3,0,0,0-.28-.44.43.43,0,0,0-.42.36.56.56,0,0,0,.29.58.92.92,0,0,0,1.22-.46,1,1,0,0,0-.44-1.26A1,1,0,0,0,10.5,26h0a1,1,0,0,0-.12.17,1.6,1.6,0,0,0,0,1.14,6.09,6.09,0,0,0,.46,1.31.12.12,0,0,0,.21-.1,5.76,5.76,0,0,1-.47-1.38c-.09-.45-.09-1,.4-1.19a.72.72,0,0,1,1,.71.66.66,0,0,1-.51.49.38.38,0,0,1-.38-.1.34.34,0,0,1-.06-.13A.25.25,0,0,0,11.41,26.89Z"/><path class="cls-1" d="M26.2,24.44h0l.17.12a1.6,1.6,0,0,0,1.14,0,6.08,6.08,0,0,0,1.31-.46.12.12,0,0,0-.1-.21,5.76,5.76,0,0,1-1.38.47c-.45.09-1,.09-1.19-.4a.72.72,0,0,1,.71-1,.66.66,0,0,1,.49.51.38.38,0,0,1-.1.38.34.34,0,0,1-.13.06.25.25,0,0,0,0-.4.3.3,0,0,0-.44.28.43.43,0,0,0,.36.42.56.56,0,0,0,.58-.29.92.92,0,0,0-.46-1.22,1,1,0,0,0-1.26.44A1,1,0,0,0,26.2,24.44Z"/><path class="cls-1" d="M13.9,5.87a.34.34,0,0,0-.37.26h0a.34.34,0,0,0,.26.37.33.33,0,0,0,.37-.2.1.1,0,0,0,0-.06h0a.1.1,0,0,0,0-.07A.33.33,0,0,0,13.9,5.87Z"/><path class="cls-1" d="M6.34,21.42h0a.34.34,0,0,0,.37-.26.33.33,0,0,0-.2-.37l-.06,0H6.39a.33.33,0,0,0-.31.29A.34.34,0,0,0,6.34,21.42Z"/><path class="cls-1" d="M21.25,28.87a.34.34,0,0,0,.37-.26h0a.34.34,0,0,0-.26-.37.33.33,0,0,0-.37.2.1.1,0,0,0,0,.06h0a.1.1,0,0,0,0,.07A.33.33,0,0,0,21.25,28.87Z"/><path class="cls-1" d="M28.81,13.32h0a.34.34,0,0,0-.37.26.33.33,0,0,0,.2.37l.06,0h.07a.33.33,0,0,0,.31-.29A.34.34,0,0,0,28.81,13.32Z"/><path class="cls-1" d="M21,6.25a.1.1,0,0,0,0,.06.33.33,0,0,0,.37.2.34.34,0,0,0,.26-.37h0a.34.34,0,0,0-.37-.26.33.33,0,0,0-.29.31.1.1,0,0,0,0,.07h0Z"/><path class="cls-1" d="M6.34,13.32h0a.34.34,0,0,0-.26.37.33.33,0,0,0,.31.29h.07l.06,0a.33.33,0,0,0,.2-.37A.34.34,0,0,0,6.34,13.32Z"/><path class="cls-1" d="M14.18,28.48a.1.1,0,0,0,0-.06.33.33,0,0,0-.37-.2.34.34,0,0,0-.26.37h0a.34.34,0,0,0,.37.26.33.33,0,0,0,.29-.31.1.1,0,0,0,0-.07h0Z"/><path class="cls-1" d="M28.8,21.42h0a.34.34,0,0,0,.26-.37.33.33,0,0,0-.31-.29h-.07l-.06,0a.33.33,0,0,0-.2.37A.34.34,0,0,0,28.8,21.42Z"/><path class="cls-1" d="M15.83,2.65v0c-.38-.59.64-1.19,1-.57l0,0a.11.11,0,0,0,.06,0A.12.12,0,0,0,17,2a.12.12,0,0,0,0,0,.54.54,0,0,1,.54-.54h0a.54.54,0,0,1,.54.54.12.12,0,0,0,0,0,.12.12,0,0,0,.16.1.11.11,0,0,0,.06,0l0,0c.33-.62,1.35,0,1,.57v0a.12.12,0,0,0,.19.14c.44-.44.13-1,.1-1.54a.12.12,0,0,0-.18-.1,4,4,0,0,0-1.09.48c-.1-.36-.45-.64-.66-1a.13.13,0,0,0-.21,0c-.21.33-.56.6-.66,1a4,4,0,0,0-1.09-.48.12.12,0,0,0-.18.1c0,.52-.33,1.1.1,1.54A.12.12,0,0,0,15.83,2.65Z"/><path class="cls-1" d="M34.28,17.26c-.33-.21-.6-.56-1-.66a4,4,0,0,0,.48-1.09.12.12,0,0,0-.1-.18c-.52,0-1.1-.33-1.54.1a.12.12,0,0,0,.14.19h0c.59-.38,1.19.64.57,1l0,0a.11.11,0,0,0,0,.06.12.12,0,0,0,.1.16h0a.54.54,0,0,1,.54.54h0a.54.54,0,0,1-.54.54h0a.12.12,0,0,0-.1.16.11.11,0,0,0,0,.06l0,0c.62.33,0,1.35-.57,1h0a.12.12,0,0,0-.14.19c.44.44,1,.13,1.54.1a.12.12,0,0,0,.1-.18,4,4,0,0,0-.48-1.09c.36-.1.64-.45,1-.66a.13.13,0,0,0,0-.21Z"/><path class="cls-1" d="M19.31,32.09v0c.38.59-.64,1.19-1,.57l0,0a.11.11,0,0,0-.06,0,.12.12,0,0,0-.16.1.12.12,0,0,0,0,0,.54.54,0,0,1-.54.54h0a.54.54,0,0,1-.54-.54.12.12,0,0,0,0,0,.12.12,0,0,0-.16-.1.11.11,0,0,0-.06,0l0,0c-.33.62-1.35,0-1-.57v0a.12.12,0,0,0-.19-.14c-.44.44-.13,1-.1,1.54a.12.12,0,0,0,.18.1,4,4,0,0,0,1.09-.48c.1.36.45.64.66,1a.13.13,0,0,0,.21,0c.21-.33.56-.6.66-1a4,4,0,0,0,1.09.48.12.12,0,0,0,.18-.1c0-.52.33-1.1-.1-1.54A.12.12,0,0,0,19.31,32.09Z"/><path class="cls-1" d="M3,19.29a.12.12,0,0,0-.14-.19h0c-.59.38-1.19-.64-.57-1l0,0a.11.11,0,0,0,0-.06.12.12,0,0,0-.1-.16h0a.54.54,0,0,1-.54-.54h0a.54.54,0,0,1,.54-.54h0a.12.12,0,0,0,.1-.16.11.11,0,0,0,0-.06l0,0c-.62-.33,0-1.35.57-1h0A.12.12,0,0,0,3,15.44c-.44-.44-1-.13-1.54-.1a.12.12,0,0,0-.1.18,4,4,0,0,0,.48,1.09c-.36.1-.64.45-1,.66a.13.13,0,0,0,0,.21c.33.21.6.56,1,.66a4,4,0,0,0-.48,1.09.12.12,0,0,0,.1.18C2,19.43,2.56,19.73,3,19.29Z"/><path class="cls-1" d="M16.23,2.23c-.25.13-.15.52,0,.7a5.55,5.55,0,0,0,.86.86.11.11,0,0,0,.13,0,.1.1,0,0,0,.07-.11.09.09,0,0,0,0,0,6.51,6.51,0,0,0-.38-1.09C16.76,2.36,16.48,2.1,16.23,2.23Z"/><path class="cls-1" d="M3.13,18.75A5.55,5.55,0,0,0,4,17.89a.11.11,0,0,0,0-.13.1.1,0,0,0-.11-.07h0a6.51,6.51,0,0,0-1.09.38c-.2.11-.46.39-.33.64S3,18.86,3.13,18.75Z"/><path class="cls-1" d="M18.92,32.51c.25-.13.15-.52,0-.7a5.54,5.54,0,0,0-.86-.86.11.11,0,0,0-.13,0,.1.1,0,0,0-.07.11.09.09,0,0,0,0,0,6.51,6.51,0,0,0,.38,1.09C18.39,32.37,18.67,32.64,18.92,32.51Z"/><path class="cls-1" d="M32,16a5.54,5.54,0,0,0-.86.86.11.11,0,0,0,0,.13.1.1,0,0,0,.11.07h0a6.51,6.51,0,0,0,1.09-.38c.2-.11.46-.39.33-.64S32.19,15.87,32,16Z"/><path class="cls-1" d="M18,3.8a.11.11,0,0,0,.13,0A5.54,5.54,0,0,0,19,2.93c.12-.18.22-.57,0-.7s-.53.13-.64.33a6.51,6.51,0,0,0-.38,1.09.09.09,0,0,0,0,0A.1.1,0,0,0,18,3.8Z"/><path class="cls-1" d="M2.43,16c-.13.25.13.53.33.64A6.51,6.51,0,0,0,3.86,17h0A.1.1,0,0,0,4,17a.11.11,0,0,0,0-.13A5.55,5.55,0,0,0,3.13,16C3,15.87,2.56,15.77,2.43,16Z"/><path class="cls-1" d="M17.18,30.93a.11.11,0,0,0-.13,0,5.55,5.55,0,0,0-.86.86c-.12.18-.22.57,0,.7s.53-.13.64-.33a6.51,6.51,0,0,0,.38-1.09.09.09,0,0,0,0,0A.1.1,0,0,0,17.18,30.93Z"/><path class="cls-1" d="M32.71,18.71c.13-.25-.13-.53-.33-.64a6.51,6.51,0,0,0-1.09-.38h0a.1.1,0,0,0-.11.07.11.11,0,0,0,0,.13,5.54,5.54,0,0,0,.86.86C32.19,18.86,32.58,19,32.71,18.71Z"/><path class="cls-1" d="M17.58,1.84h0c-.25,0-.38.34-.39.54a4.89,4.89,0,0,0,.27,1.22.11.11,0,0,0,.11.08h0a.11.11,0,0,0,.11-.08A4.89,4.89,0,0,0,18,2.38C18,2.18,17.83,1.84,17.58,1.84Z"/><path class="cls-1" d="M32.56,17a4.89,4.89,0,0,0-1.22.27.11.11,0,0,0-.08.11h0a.11.11,0,0,0,.08.11,4.89,4.89,0,0,0,1.22.27c.2,0,.54-.13.54-.39h0C33.1,17.11,32.76,17,32.56,17Z"/><path class="cls-1" d="M17.57,32.89h0c.25,0,.38-.34.39-.54a4.89,4.89,0,0,0-.27-1.22.11.11,0,0,0-.11-.08h0a.11.11,0,0,0-.11.08,4.89,4.89,0,0,0-.27,1.22C17.19,32.55,17.31,32.89,17.57,32.89Z"/><path class="cls-1" d="M2.59,17.76a4.89,4.89,0,0,0,1.22-.27.11.11,0,0,0,.08-.11h0a.11.11,0,0,0-.08-.11A4.89,4.89,0,0,0,2.59,17c-.2,0-.54.13-.54.39H2C2,17.62,2.39,17.75,2.59,17.76Z"/><path class="cls-1" d="M17.57,4.72h0a.34.34,0,0,0,.32-.34.34.34,0,0,0-.26-.32h-.13a.34.34,0,0,0-.26.32A.34.34,0,0,0,17.57,4.72Z"/><path class="cls-1" d="M30.88,17.3a.34.34,0,0,0-.32-.26.34.34,0,0,0-.34.32h0a.34.34,0,0,0,.34.32.34.34,0,0,0,.32-.26.1.1,0,0,0,0-.06h0A.1.1,0,0,0,30.88,17.3Z"/><path class="cls-1" d="M17.58,30h0a.34.34,0,0,0-.32.34.34.34,0,0,0,.26.32h.13a.34.34,0,0,0,.26-.32A.34.34,0,0,0,17.58,30Z"/><path class="cls-1" d="M4.27,17.43a.34.34,0,0,0,.32.26.34.34,0,0,0,.34-.32h0A.34.34,0,0,0,4.59,17a.34.34,0,0,0-.32.26.1.1,0,0,0,0,.06h0A.1.1,0,0,0,4.27,17.43Z"/><circle class="cls-2" cx="17.74" cy="17.22" r="6.02"/></svg>